<mxfile host="Electron" modified="2025-01-15T10:53:19.143Z" agent="Mozilla/5.0 (X11; Linux x86_64) AppleWebKit/537.36 (KHTML, like Gecko) draw.io/24.0.4 Chrome/120.0.6099.109 Electron/28.1.0 Safari/537.36" etag="4_LVpn_3OfQ3ANELQl_i" version="24.0.4" type="device">
  <diagram name="Page-1" id="lSogmwO4la7FBB0elK2z">
    <mxGraphModel dx="717" dy="417" grid="1" gridSize="1" guides="1" tooltips="1" connect="1" arrows="1" fold="1" page="1" pageScale="1" pageWidth="1169" pageHeight="827" math="0" shadow="0">
      <root>
        <mxCell id="0" />
        <mxCell id="1" parent="0" />
        <mxCell id="I94Z3fY8ErUGYnlPilAP-1" value="RDMDepositForm" style="rounded=1;whiteSpace=wrap;html=1;fillColor=#d5e8d4;strokeColor=#82b366;" vertex="1" parent="1">
          <mxGeometry x="515" y="19" width="120" height="60" as="geometry" />
        </mxCell>
        <mxCell id="I94Z3fY8ErUGYnlPilAP-2" value="Overridable" style="rounded=0;whiteSpace=wrap;html=1;fillColor=#d5e8d4;strokeColor=#82b366;" vertex="1" parent="1">
          <mxGeometry x="895" y="10" width="69" height="17" as="geometry" />
        </mxCell>
        <mxCell id="I94Z3fY8ErUGYnlPilAP-3" value="DepositFormApp" style="rounded=1;whiteSpace=wrap;html=1;" vertex="1" parent="1">
          <mxGeometry x="515" y="97" width="120" height="60" as="geometry" />
        </mxCell>
        <mxCell id="I94Z3fY8ErUGYnlPilAP-4" value="FormFeedback" style="rounded=1;whiteSpace=wrap;html=1;fillColor=#d5e8d4;strokeColor=#82b366;" vertex="1" parent="1">
          <mxGeometry x="377" y="175" width="120" height="60" as="geometry" />
        </mxCell>
        <mxCell id="I94Z3fY8ErUGYnlPilAP-5" value="CommunityHeader" style="rounded=1;whiteSpace=wrap;html=1;fillColor=#d5e8d4;strokeColor=#82b366;" vertex="1" parent="1">
          <mxGeometry x="515" y="175" width="120" height="60" as="geometry" />
        </mxCell>
        <mxCell id="I94Z3fY8ErUGYnlPilAP-6" value="Container" style="rounded=1;whiteSpace=wrap;html=1;" vertex="1" parent="1">
          <mxGeometry x="653" y="175" width="120" height="60" as="geometry" />
        </mxCell>
        <mxCell id="I94Z3fY8ErUGYnlPilAP-7" value="Grid" style="rounded=1;whiteSpace=wrap;html=1;" vertex="1" parent="1">
          <mxGeometry x="653" y="251" width="120" height="60" as="geometry" />
        </mxCell>
        <mxCell id="I94Z3fY8ErUGYnlPilAP-8" value="Grid.column" style="rounded=1;whiteSpace=wrap;html=1;" vertex="1" parent="1">
          <mxGeometry x="581" y="327" width="120" height="60" as="geometry" />
        </mxCell>
        <mxCell id="I94Z3fY8ErUGYnlPilAP-9" value="Ref" style="rounded=1;whiteSpace=wrap;html=1;" vertex="1" parent="1">
          <mxGeometry x="720" y="327" width="120" height="60" as="geometry" />
        </mxCell>
        <mxCell id="I94Z3fY8ErUGYnlPilAP-10" value="AccordionField" style="rounded=1;whiteSpace=wrap;html=1;fillColor=#d5e8d4;strokeColor=#82b366;" vertex="1" parent="1">
          <mxGeometry x="581" y="403" width="120" height="60" as="geometry" />
        </mxCell>
        <mxCell id="I94Z3fY8ErUGYnlPilAP-11" value="FileUploader" style="rounded=1;whiteSpace=wrap;html=1;fillColor=#d5e8d4;strokeColor=#82b366;" vertex="1" parent="1">
          <mxGeometry x="581" y="478" width="120" height="60" as="geometry" />
        </mxCell>
      </root>
    </mxGraphModel>
  </diagram>
</mxfile>
